<svg width="516" height="574" viewBox="0 0 516 574" fill="none" xmlns="http://www.w3.org/2000/svg">
<path opacity="0.08" d="M307.623 81.7898C309.939 27.006 265.176 0 203.435 0C139.379 0 66.061 33.1789 66.8328 116.512L353.929 501.541C392.518 550.924 370.136 554.782 296.819 554.782L299.134 561.726H516L513.685 554.782C483.586 555.553 455.802 556.325 417.214 502.313L130.889 114.969C130.117 45.5245 160.216 13.1172 209.609 13.1172C263.633 13.1172 303.765 34.722 300.678 81.0182C297.59 124.999 213.468 139.66 213.468 157.407H283.699C288.329 146.604 306.08 108.024 307.623 81.7898ZM195.718 559.411C88.4422 572.529 49.0822 502.313 38.2775 412.035C25.9292 312.499 79.181 261.573 146.325 242.283L169.477 244.598L183.369 235.339C182.598 229.166 168.706 229.166 158.673 230.709C67.6045 241.511 -60.5084 305.554 -45.8449 423.609C-34.2684 517.745 55.2563 587.189 189.543 570.985C352.386 550.924 356.245 382.714 381.713 271.604C390.974 232.252 411.04 229.937 463.52 229.937V222.993H265.948V229.937C355.473 229.937 373.223 236.11 367.821 270.832C350.07 389.659 326.146 543.208 195.718 559.411Z" fill="#3D445C"/>
</svg>
