<svg width="35" height="35" viewBox="0 0 35 35" fill="none" xmlns="http://www.w3.org/2000/svg">
<path d="M17.5 35C27.165 35 35 27.165 35 17.5C35 7.83502 27.165 0 17.5 0C7.83502 0 0 7.83502 0 17.5C0 27.165 7.83502 35 17.5 35Z" fill="#C69B7B"/>
<path d="M21.7455 20.6771C21.0678 20.2848 20.3779 20.529 20.0926 20.9144L19.4959 21.6867C19.1927 22.079 18.6262 22.0269 18.6262 22.0269C14.4919 20.9336 13.3863 16.6073 13.3863 16.6073C13.3863 16.6073 13.3356 16.0216 13.7142 15.7075L14.4604 15.0902C14.8335 14.7939 15.0694 14.0806 14.6894 13.3797C13.6744 11.5457 12.9926 10.9134 12.6456 10.4278C12.2807 9.97102 11.732 9.86814 11.1614 10.1768H11.1491C9.96255 10.8709 8.66355 12.1699 9.07918 13.5073C9.78835 14.9174 11.0915 19.4124 15.245 22.8088C17.1969 24.415 20.286 26.0611 21.5973 26.441L21.6097 26.4602C22.9018 26.8909 24.1583 25.5412 24.829 24.319V24.3094C25.1267 23.7182 25.0279 23.1585 24.5931 22.7923C23.8222 22.0406 22.659 21.2107 21.7455 20.6771Z" fill="white"/>
</svg>
