<svg width="16" height="17" viewBox="0 0 16 17" fill="none" xmlns="http://www.w3.org/2000/svg">
<path d="M12.7455 10.6771C12.0678 10.2848 11.3779 10.529 11.0926 10.9144L10.4959 11.6867C10.1927 12.079 9.62621 12.0269 9.62621 12.0269C5.4919 10.9336 4.38631 6.6073 4.38631 6.6073C4.38631 6.6073 4.33556 6.02158 4.71415 5.70747L5.46036 5.0902C5.83346 4.79391 6.06939 4.08063 5.68943 3.37969C4.67437 1.54573 3.99264 0.913373 3.6456 0.427791C3.28072 -0.0289847 2.73204 -0.131862 2.16142 0.17677H2.14907C0.962551 0.87085 -0.336448 2.16985 0.0791767 3.50726C0.788346 4.91737 2.09146 9.41243 6.24497 12.8088C8.1969 14.415 11.286 16.0611 12.5973 16.441L12.6097 16.4602C13.9018 16.8909 15.1583 15.5412 15.829 14.319V14.3094C16.1267 13.7182 16.0279 13.1585 15.5931 12.7923C14.8222 12.0406 13.659 11.2107 12.7455 10.6771Z" fill="white"/>
</svg>
