<svg width="35" height="35" viewBox="0 0 35 35" fill="none" xmlns="http://www.w3.org/2000/svg">
<path d="M17.5 35C27.165 35 35 27.165 35 17.5C35 7.83502 27.165 0 17.5 0C7.83502 0 0 7.83502 0 17.5C0 27.165 7.83502 35 17.5 35Z" fill="#C69B7B"/>
<path d="M9.69844 16.464L23.001 11.0661C23.6184 10.8313 24.1576 11.2246 23.9576 12.2071L23.9587 12.2059L21.6937 23.4362C21.5259 24.2324 21.0763 24.426 20.4474 24.0509L16.9982 21.3755L15.3345 23.0623C15.1505 23.2559 14.9953 23.4193 14.6389 23.4193L14.8838 19.7251L21.2764 13.6471C21.5546 13.3893 21.2143 13.2441 20.8475 13.5007L12.9476 18.7353L9.54207 17.6172C8.80279 17.3703 8.78669 16.8391 9.69844 16.464Z" fill="white"/>
</svg>
