<svg width="35" height="35" viewBox="0 0 35 35" fill="none" xmlns="http://www.w3.org/2000/svg">
<path d="M17.5 35C27.165 35 35 27.165 35 17.5C35 7.83502 27.165 0 17.5 0C7.83502 0 0 7.83502 0 17.5C0 27.165 7.83502 35 17.5 35Z" fill="#C69B7B"/>
<path d="M25.9536 13.9981C25.9137 13.0948 25.7677 12.4738 25.5584 11.9357C25.3426 11.3645 25.0105 10.8531 24.5754 10.428C24.1502 9.99629 23.6355 9.66082 23.0709 9.44833C22.5297 9.23908 21.912 9.09301 21.0087 9.05319C20.0987 9.00999 19.8098 9 17.5017 9C15.1936 9 14.9047 9.00999 13.9981 9.04981C13.0948 9.08964 12.4738 9.23584 11.9358 9.44496C11.3645 9.66082 10.8531 9.99292 10.428 10.428C9.99629 10.8531 9.66095 11.3679 9.44833 11.9324C9.23908 12.4738 9.09301 13.0914 9.05319 13.9947C9.00999 14.9047 9 15.1936 9 17.5017C9 19.8098 9.00999 20.0987 9.04981 21.0053C9.08964 21.9086 9.23584 22.5296 9.44509 23.0677C9.66095 23.6389 9.99629 24.1502 10.428 24.5754C10.8531 25.0071 11.3679 25.3426 11.9324 25.555C12.4738 25.7643 13.0914 25.9104 13.9948 25.9502C14.9013 25.9901 15.1904 26 17.4984 26C19.8065 26 20.0954 25.9901 21.0021 25.9502C21.9053 25.9104 22.5263 25.7643 23.0643 25.555C24.2068 25.1133 25.1101 24.21 25.5518 23.0677C25.7609 22.5263 25.9071 21.9086 25.9469 21.0053C25.9868 20.0987 25.9968 19.8098 25.9968 17.5017C25.9968 15.1936 25.9934 14.9047 25.9536 13.9981ZM24.4227 20.9389C24.3861 21.7691 24.2466 22.2175 24.1304 22.5164C23.8447 23.257 23.257 23.8447 22.5164 24.1304C22.2175 24.2466 21.7659 24.3861 20.9389 24.4225C20.0422 24.4625 19.7733 24.4724 17.5051 24.4724C15.2368 24.4724 14.9645 24.4625 14.0711 24.4225C13.2409 24.3861 12.7925 24.2466 12.4936 24.1304C12.1251 23.9942 11.7896 23.7783 11.5173 23.496C11.235 23.2204 11.0192 22.8883 10.883 22.5197C10.7667 22.2208 10.6273 21.7691 10.5908 20.9423C10.5509 20.0456 10.541 19.7766 10.541 17.5083C10.541 15.2401 10.5509 14.9678 10.5908 14.0745C10.6273 13.2442 10.7667 12.7959 10.883 12.497C11.0192 12.1283 11.235 11.793 11.5207 11.5206C11.7962 11.2383 12.1283 11.0224 12.497 10.8863C12.7959 10.7701 13.2476 10.6306 14.0745 10.5941C14.9711 10.5542 15.2402 10.5443 17.5083 10.5443C19.7799 10.5443 20.0488 10.5542 20.9423 10.5941C21.7725 10.6306 22.2208 10.7701 22.5197 10.8863C22.8883 11.0224 23.2237 11.2383 23.496 11.5206C23.7783 11.7962 23.9942 12.1283 24.1304 12.497C24.2466 12.7959 24.3861 13.2475 24.4227 14.0745C24.4625 14.9711 24.4725 15.2401 24.4725 17.5083C24.4725 19.7766 24.4625 20.0422 24.4227 20.9389Z" fill="white"/>
<path d="M17.5018 13.1348C15.0908 13.1348 13.1347 15.0908 13.1347 17.5018C13.1347 19.9129 15.0908 21.8689 17.5018 21.8689C19.9128 21.8689 21.8688 19.9129 21.8688 17.5018C21.8688 15.0908 19.9128 13.1348 17.5018 13.1348ZM17.5018 20.3347C15.9377 20.3347 14.6689 19.0661 14.6689 17.5018C14.6689 15.9376 15.9377 14.669 17.5018 14.669C19.066 14.669 20.3346 15.9376 20.3346 17.5018C20.3346 19.0661 19.066 20.3347 17.5018 20.3347V20.3347Z" fill="white"/>
<path d="M23.0611 12.9619C23.0611 13.5249 22.6046 13.9814 22.0415 13.9814C21.4784 13.9814 21.0219 13.5249 21.0219 12.9619C21.0219 12.3988 21.4784 11.9424 22.0415 11.9424C22.6046 11.9424 23.0611 12.3988 23.0611 12.9619V12.9619Z" fill="white"/>
</svg>
