<svg width="35" height="35" viewBox="0 0 35 35" fill="none" xmlns="http://www.w3.org/2000/svg">
<path d="M17.5 35C27.165 35 35 27.165 35 17.5C35 7.83502 27.165 0 17.5 0C7.83502 0 0 7.83502 0 17.5C0 27.165 7.83502 35 17.5 35Z" fill="#C69B7B"/>
<path d="M17.9176 10.0033C14.6684 9.89383 12 12.4952 12 15.7197C12 19.3792 15.5119 22.035 17.4803 25.8544C17.5802 26.0484 17.8593 26.0486 17.9596 25.8547C19.7403 22.418 22.7838 20.1135 23.3478 16.8027C23.9318 13.3766 21.3911 10.1204 17.9176 10.0033ZM17.7197 18.7157C16.065 18.7157 14.7237 17.3743 14.7237 15.7197C14.7237 14.0651 16.0651 12.7237 17.7197 12.7237C19.3743 12.7237 20.7157 14.0651 20.7157 15.7197C20.7157 17.3743 19.3743 18.7157 17.7197 18.7157Z" fill="white"/>
</svg>
