<svg width="15" height="16" viewBox="0 0 15 16" fill="none" xmlns="http://www.w3.org/2000/svg">
<path d="M7.45875 0C6.97957 0 6.97957 0.74678 7.45875 0.753003C11.1765 0.78163 14.2383 3.37296 14.2719 8.12621C14.2719 8.6278 15.0062 8.62157 15 8.11999H14.9987C14.9589 2.99832 11.6158 0.0286266 7.45875 0Z" fill="white"/>
<path d="M12.3489 7.33822C12.3377 7.83358 13.0708 7.85723 13.077 7.35564C13.138 4.53157 11.3968 2.20535 8.12463 1.96016C7.64544 1.92531 7.59566 2.67831 8.0736 2.71316C10.9114 2.92848 12.4062 4.86513 12.3489 7.33822Z" fill="white"/>
<path d="M11.5648 10.5507C10.9499 10.1948 10.3239 10.4163 10.065 10.7661L9.52359 11.4668C9.24852 11.8227 8.73449 11.7755 8.73449 11.7755C4.98316 10.7835 3.97999 6.85791 3.97999 6.85791C3.97999 6.85791 3.93394 6.32645 4.27746 6.04143L4.95454 5.48134C5.29308 5.2125 5.50715 4.56529 5.16239 3.92928C4.24136 2.26521 3.62278 1.69143 3.30789 1.25083C2.97682 0.836371 2.47896 0.743024 1.96119 1.02307H1.94999C0.873386 1.65285 -0.305282 2.83152 0.0718422 4.04504C0.715318 5.32452 1.89772 9.40318 5.66647 12.4849C7.43758 13.9424 10.2405 15.4359 11.4304 15.7807L11.4416 15.7981C12.614 16.1889 13.7541 14.9642 14.3627 13.8552V13.8465C14.6328 13.3101 14.5432 12.8023 14.1486 12.47C13.4492 11.7879 12.3937 11.0349 11.5648 10.5507Z" fill="white"/>
<path d="M8.63739 4.73842C9.83348 4.80812 10.4135 5.43292 10.4757 6.71614C10.4981 7.21773 11.2262 7.18288 11.2038 6.68129C11.1242 5.00601 10.2504 4.07254 8.67721 3.98541C8.19803 3.95679 8.15322 4.70979 8.63739 4.73842Z" fill="white"/>
</svg>
