<svg width="18" height="18" viewBox="0 0 18 18" fill="none" xmlns="http://www.w3.org/2000/svg">
<g opacity="0.52">
<path d="M10.1298 4.51874H7.30552C7.01428 4.51874 6.77817 4.75485 6.77817 5.04608V9.03748H6.17584C5.88461 9.03748 5.6485 9.27359 5.6485 9.56482C5.6485 9.85605 5.88461 10.0922 6.17584 10.0922H6.77817V11.2969H6.17584C5.88461 11.2969 5.6485 11.533 5.6485 11.8242C5.6485 12.1154 5.88461 12.3516 6.17584 12.3516H6.77817V13.5187C6.77817 13.81 7.01428 14.0461 7.30552 14.0461C7.59675 14.0461 7.83286 13.81 7.83286 13.5187V12.3516H10.1298C10.421 12.3516 10.6571 12.1154 10.6571 11.8242C10.6571 11.533 10.421 11.2969 10.1298 11.2969H7.83286V10.0922H10.1298C11.6664 10.0922 12.9165 8.84204 12.9165 7.30543C12.9165 5.73085 11.6339 4.51874 10.1298 4.51874ZM10.1298 9.03748H7.83286V5.57343H10.1298C11.079 5.57343 11.8618 6.33913 11.8618 7.30547C11.8618 8.26052 11.0848 9.03748 10.1298 9.03748Z" fill="#272F4A"/>
<path d="M9 0C4.03738 0 0 4.03738 0 9C0 13.9626 4.03738 18 9 18C13.9626 18 18 13.9626 18 9C18 4.03738 13.9626 0 9 0ZM9 16.9453C4.61893 16.9453 1.05469 13.3811 1.05469 9C1.05469 4.61893 4.61893 1.05469 9 1.05469C13.3811 1.05469 16.9453 4.61893 16.9453 9C16.9453 13.3811 13.3811 16.9453 9 16.9453Z" fill="#272F4A"/>
</g>
</svg>
