<svg width="25" height="26" viewBox="0 0 25 26" fill="none" xmlns="http://www.w3.org/2000/svg">
<path d="M12.5 0.702148C5.59136 0.702148 0 6.29277 0 13.2021C0 20.1108 5.59063 25.7021 12.5 25.7021C19.4086 25.7021 25 20.1115 25 13.2021C25 6.29351 19.4094 0.702148 12.5 0.702148ZM12.5 23.958C6.56924 23.958 1.74419 19.1329 1.74419 13.2021C1.74419 7.27139 6.56924 2.44634 12.5 2.44634C18.4308 2.44634 23.2558 7.27139 23.2558 13.2021C23.2558 19.1329 18.4308 23.958 12.5 23.958Z" fill="white"/>
<path d="M12.5 10.6442C12.0184 10.6442 11.6279 11.0346 11.6279 11.5162V18.6674C11.6279 19.149 12.0184 19.5395 12.5 19.5395C12.9816 19.5395 13.3721 19.149 13.3721 18.6674V11.5163C13.3721 11.0346 12.9816 10.6442 12.5 10.6442Z" fill="white"/>
<path d="M12.5 6.86499C12.0184 6.86499 11.6279 7.25547 11.6279 7.73706V8.78359C11.6279 9.26523 12.0184 9.65566 12.5 9.65566C12.9816 9.65566 13.3721 9.26519 13.3721 8.78359V7.73706C13.3721 7.25547 12.9816 6.86499 12.5 6.86499Z" fill="white"/>
</svg>
