<svg width="155" height="27" viewBox="0 0 155 27" fill="none" xmlns="http://www.w3.org/2000/svg">
<path d="M20.7855 8.53271V19.4243C20.7855 22.1179 19.9489 24.0084 18.2759 25.0959C16.6028 26.1666 13.9929 26.702 10.446 26.702C9.49239 26.702 8.63913 26.6686 7.88626 26.6016C7.15012 26.5514 6.36379 26.4427 5.52726 26.2754C4.69074 26.1081 3.97133 25.8571 3.36903 25.5225C2.78346 25.1712 2.23972 24.7362 1.73781 24.2175C1.23589 23.6989 0.851094 23.038 0.583406 22.235C0.332449 21.4152 0.20697 20.4783 0.20697 19.4243V8.53271H6.30523V18.9725C6.30523 20.2441 6.68167 21.2228 7.43454 21.9087C8.18741 22.578 9.1996 22.9126 10.4711 22.9126C11.7594 22.9126 12.7799 22.6031 13.5328 21.984C14.3024 21.3483 14.6872 20.4114 14.6872 19.1733V8.53271H20.7855Z" fill="white"/>
<path d="M50.1898 26.0997H44.0414V20.2524C44.0414 17.8767 44.0748 16.0614 44.1417 14.8066H44.0915L39.2983 26.0997H34.7057L29.787 14.8568H29.7368C29.787 15.5595 29.8121 17.3831 29.8121 20.3277V26.0997H23.6636V8.53271H31.895L36.9142 19.8258H36.9644L42.0086 8.53271H50.1898V26.0997Z" fill="white"/>
<path d="M74.0247 26.0997H67.4245L66.6214 23.7658H58.8418L57.9634 26.0997H51.4385L59.1178 8.53271H66.2199L74.0247 26.0997ZM64.9651 19.5748L62.6312 13.3511L60.4228 19.5748H64.9651Z" fill="white"/>
<path d="M95.328 14.1291C95.328 15.5679 94.9014 16.7641 94.0481 17.7178C93.1949 18.6714 92.1576 19.2737 90.9362 19.5246L95.2025 26.0997H88.3263L84.5619 19.7254H81.5003V26.0997H75.2765V8.53271H89.0792C90.9195 8.53271 92.4169 9.05136 93.5713 10.0886C94.7424 11.1092 95.328 12.456 95.328 14.1291ZM88.8533 14.1291C88.8533 13.5937 88.6944 13.1838 88.3765 12.8994C88.0753 12.5982 87.6738 12.4476 87.1719 12.4476H81.5003V15.7854H87.1719C88.2928 15.7854 88.8533 15.2333 88.8533 14.1291Z" fill="white"/>
<path d="M117.448 26.0997H110.747L106.631 18.7216L104.072 21.3566V26.0997H97.848V8.53271H104.072V14.9321L109.794 8.53271H117.046L110.998 14.8819L117.448 26.0997Z" fill="white"/>
<path d="M124.966 26.0997H119.194V21.8334H124.966V26.0997Z" fill="white"/>
<path d="M134.191 26.0997H127.968V8.53271H134.191V26.0997Z" fill="white"/>
<path d="M155 12.799H148.651V26.0997H142.427V12.799H136.078V8.53271H155V12.799Z" fill="white"/>
<circle cx="3.40204" cy="3.40204" r="3.40204" fill="white"/>
<circle cx="17.6201" cy="3.40252" r="3.40204" fill="white"/>
<rect x="127.893" y="0.270264" width="6.26371" height="6.26371" fill="white"/>
</svg>
